<?xml version="1.0" standalone="no"?>
<!DOCTYPE svg PUBLIC "-//W3C//DTD SVG 20010904//EN"
 "http://www.w3.org/TR/2001/REC-SVG-20010904/DTD/svg10.dtd">
<svg version="1.0" xmlns="http://www.w3.org/2000/svg"
 width="1300.000000pt" height="1300.000000pt" viewBox="0 0 1300.000000 1300.000000"
 preserveAspectRatio="xMidYMid meet">
<metadata>
Created by potrace 1.11, written by Peter Selinger 2001-2013
</metadata>
<g transform="translate(0.000000,1300.000000) scale(0.100000,-0.100000)"
fill="#000000" stroke="none">
<path d="M6198 12835 c-2 -1 -59 -6 -127 -10 -68 -4 -133 -8 -145 -10 -11 -2
-46 -6 -76 -9 -30 -3 -82 -8 -115 -11 -33 -4 -67 -8 -75 -10 -8 -2 -42 -7 -75
-11 -33 -3 -62 -8 -65 -9 -3 -2 -24 -6 -46 -9 -22 -4 -49 -8 -59 -10 -11 -2
-40 -7 -65 -11 -44 -7 -56 -10 -102 -20 -13 -3 -36 -8 -53 -11 -29 -5 -172
-37 -225 -51 -14 -3 -30 -7 -37 -9 -59 -12 -486 -141 -533 -161 -8 -3 -17 -7
-20 -8 -3 -1 -14 -5 -25 -9 -11 -5 -63 -24 -115 -43 -52 -20 -111 -42 -130
-50 -19 -8 -44 -19 -55 -23 -11 -5 -55 -25 -98 -44 -44 -20 -82 -36 -87 -36
-13 0 -94 -44 -102 -55 -4 -5 -8 -7 -8 -3 0 9 -244 -113 -248 -124 -2 -4 -11
-8 -20 -8 -8 0 -23 -6 -31 -14 -9 -7 -45 -28 -81 -47 -36 -18 -67 -36 -70 -40
-3 -3 -26 -17 -51 -31 -66 -37 -92 -52 -103 -61 -12 -8 -161 -105 -188 -122
-139 -85 -481 -349 -677 -523 -148 -132 -341 -321 -341 -334 0 -4 -7 -8 -15
-8 -8 0 -15 -4 -15 -9 0 -4 -26 -36 -57 -69 -32 -33 -78 -84 -103 -112 -25
-28 -56 -63 -69 -78 -13 -15 -49 -58 -80 -97 -31 -38 -63 -77 -71 -86 -31 -33
-50 -59 -50 -68 0 -5 -7 -11 -15 -15 -8 -3 -15 -11 -15 -18 0 -8 -9 -20 -20
-28 -11 -8 -20 -18 -20 -22 0 -5 -22 -37 -48 -71 -26 -34 -58 -79 -71 -100
-13 -21 -28 -43 -34 -50 -21 -22 -107 -156 -107 -167 0 -5 -4 -10 -10 -10 -5
0 -10 -7 -10 -15 0 -8 -4 -15 -8 -15 -5 0 -16 -15 -25 -32 -10 -18 -25 -46
-36 -63 -83 -136 -328 -597 -341 -643 -5 -15 -19 -49 -41 -97 -12 -27 -23 -52
-24 -55 -1 -3 -7 -17 -13 -32 -28 -65 -35 -84 -38 -93 -1 -5 -19 -50 -38 -99
-20 -49 -36 -95 -36 -103 0 -7 -5 -13 -12 -13 -6 0 -9 -3 -5 -6 5 -5 -10 -58
-30 -104 -3 -8 -7 -19 -8 -25 -2 -5 -13 -39 -25 -75 -12 -36 -23 -72 -25 -80
-1 -8 -10 -37 -18 -65 -41 -136 -78 -278 -92 -353 -2 -13 -7 -32 -10 -42 -6
-19 -12 -45 -21 -90 -3 -14 -14 -72 -26 -130 -11 -58 -22 -116 -23 -130 -5
-48 -17 -125 -20 -130 -2 -3 -6 -37 -10 -75 -4 -39 -9 -77 -10 -85 -2 -8 -6
-49 -10 -90 -4 -41 -9 -88 -11 -105 -26 -210 -26 -858 0 -1116 14 -135 18
-167 21 -194 3 -16 7 -51 9 -77 3 -26 10 -78 16 -115 6 -37 13 -79 15 -93 16
-109 77 -396 111 -523 8 -32 17 -66 19 -75 11 -52 108 -370 125 -407 4 -11 11
-29 13 -40 9 -35 59 -167 114 -300 30 -71 57 -140 60 -152 3 -13 9 -23 14 -23
5 0 9 -7 9 -16 0 -18 173 -374 201 -415 10 -14 16 -28 13 -31 -2 -3 2 -11 11
-18 8 -7 15 -16 15 -20 0 -9 80 -152 89 -160 4 -3 13 -18 21 -35 8 -16 32 -55
52 -85 21 -30 38 -61 38 -67 0 -7 5 -13 10 -13 6 0 10 -7 10 -15 0 -8 5 -15
10 -15 6 0 10 -7 10 -15 0 -8 4 -15 9 -15 5 0 13 -9 16 -20 3 -11 12 -26 19
-32 6 -7 32 -43 56 -80 24 -38 48 -68 52 -68 4 0 8 -6 8 -12 0 -7 12 -26 25
-43 14 -16 45 -57 69 -90 24 -33 54 -70 65 -82 12 -12 21 -26 21 -32 0 -5 3
-11 8 -13 4 -1 25 -25 47 -53 21 -27 47 -59 57 -70 10 -11 26 -29 35 -41 48
-57 144 -164 198 -220 33 -35 67 -71 76 -81 28 -33 274 -267 339 -323 35 -30
75 -67 91 -81 15 -14 41 -36 59 -50 17 -13 37 -29 43 -35 7 -5 48 -38 92 -73
44 -34 87 -68 95 -74 24 -19 122 -91 146 -107 86 -58 171 -116 179 -123 22
-17 203 -131 255 -160 30 -17 57 -33 60 -36 3 -4 23 -16 46 -28 22 -12 74 -41
115 -63 41 -22 146 -76 234 -119 140 -68 190 -92 280 -132 106 -47 368 -147
485 -186 45 -15 192 -60 220 -69 100 -28 310 -85 325 -88 11 -2 38 -9 60 -14
48 -13 279 -60 332 -68 21 -3 76 -11 123 -19 47 -8 108 -17 135 -20 28 -3 66
-8 85 -11 19 -3 60 -7 90 -10 30 -3 73 -7 95 -9 284 -27 871 -27 1125 0 19 2
62 7 95 10 33 4 76 8 95 10 105 11 155 17 160 20 3 2 33 7 65 10 33 4 62 9 65
10 3 2 24 6 46 9 46 7 61 10 164 31 41 8 84 17 95 19 11 2 52 12 90 21 39 9
77 18 85 20 100 22 447 123 495 144 11 5 61 23 110 39 90 30 313 117 392 153
23 10 47 19 52 19 6 0 11 4 11 8 0 5 6 9 13 9 17 0 343 160 461 227 54 31 100
56 102 56 2 0 27 15 57 32 29 18 61 38 72 45 62 37 221 138 225 143 3 3 23 17
45 30 22 14 47 30 55 37 16 13 153 112 178 128 9 6 25 17 36 27 12 9 71 56
131 104 61 48 112 91 113 96 2 4 8 8 12 8 5 0 20 10 32 23 13 12 57 51 97 87
41 36 88 78 105 93 44 40 246 239 246 242 0 2 30 34 68 73 64 67 150 162 189
209 59 72 89 107 98 117 6 6 24 29 40 51 17 22 42 54 57 70 16 17 28 36 28 43
0 6 3 12 8 12 4 0 18 17 32 37 14 20 30 41 35 47 24 26 208 296 222 326 3 8 9
17 13 20 11 8 122 196 202 340 87 158 268 525 268 544 0 3 11 30 25 60 14 30
25 57 25 59 0 3 8 22 17 43 9 22 17 41 18 44 1 3 5 12 8 20 42 98 186 539 212
650 2 8 20 83 40 165 20 83 38 159 39 170 2 11 6 30 10 42 4 12 9 37 11 55 2
18 10 70 19 115 8 45 17 99 21 120 3 21 7 48 9 59 2 11 7 47 11 79 4 33 9 74
11 90 2 17 6 57 10 90 3 33 7 76 10 95 25 202 25 941 -1 1125 -2 17 -6 59 -10
95 -3 36 -7 79 -10 95 -2 17 -11 82 -20 145 -20 144 -68 402 -101 540 -31 127
-34 138 -40 169 -3 13 -9 31 -13 40 -5 9 -9 18 -8 21 1 9 -26 115 -32 125 -3
6 -6 16 -7 23 -3 16 -102 319 -115 350 -5 12 -13 32 -18 45 -65 168 -100 254
-128 315 -18 41 -33 80 -33 88 0 8 -4 14 -10 14 -5 0 -10 6 -10 13 0 24 -237
483 -266 518 -8 9 -11 19 -7 22 3 4 1 7 -5 7 -7 0 -12 7 -12 15 0 8 -4 15 -10
15 -5 0 -10 5 -10 11 0 12 -73 133 -127 211 -18 26 -33 51 -33 54 0 3 -13 23
-30 44 -16 21 -30 43 -30 49 0 6 -4 11 -10 11 -5 0 -10 7 -10 15 0 8 -4 15 -8
15 -4 0 -15 12 -24 28 -9 15 -24 36 -32 47 -9 11 -57 74 -106 140 -94 124
-138 179 -202 249 -21 23 -38 44 -38 47 0 3 -21 29 -47 57 -27 28 -73 78 -103
112 -30 34 -63 69 -74 78 -10 10 -37 37 -60 61 -40 43 -84 86 -198 192 -97 92
-119 112 -243 216 -222 186 -646 489 -800 572 -45 24 -77 43 -85 51 -3 3 -18
12 -35 20 -16 8 -32 17 -35 20 -10 11 -428 223 -500 254 -25 11 -67 29 -95 42
-85 38 -226 94 -315 125 -47 17 -94 34 -105 39 -40 18 -366 121 -425 135 -20
4 -101 24 -120 30 -50 13 -270 64 -295 68 -16 3 -55 10 -85 16 -30 6 -68 13
-85 15 -16 3 -70 12 -120 20 -98 16 -138 22 -230 32 -33 3 -67 8 -75 9 -9 2
-58 6 -110 10 -52 4 -111 9 -130 11 -40 6 -727 14 -732 9z"/>
</g>
</svg>
